# xmcd
#
# Track frame offsets:
#	150
#	13618
#	22192
#	31648
#	40507
#	52373
#	68117
#	75647
#	90712
#	106814
#	117660
#	128276
#	144006
#	161308
#	173400
#	181455
#	193684
#	199929
#	209822
#	225592
#
# Disc length: 3131 seconds
#
# Revision: 0
# Processed by: cddbd v1.5.2PL0 Copyright (c) Steve Scherf et al.
# Submitted via: audiograbber 1.83.01
#
DISCID=050c3914
DTITLE=Various Artist - Western-Hits Vol. 13 [CD 2)
DYEAR=1999
DGENRE=Country
TTITLE0=Freddy Fender - In The Still Of The Night [mono]
TTITLE1=Barbara Mandrell - I Gave My Love To A Railroad Man [mono]
TTITLE2=Mickey Gilley - Lotta Lovin' [mono]
TTITLE3=Bob Wills and His Texas Playboys - It's Your Red Wagon [mono]
TTITLE4=Anne Murray - Last Thing On My Mind
TTITLE5=Bertie Higgins - Gone With The Wind
TTITLE6=Eddie Raven - I Really Had A Good Time At Your Party [live]
TTITLE7=Barbara Fairchild - So Began The Blues [live]
TTITLE8=Mel Tillis - Rose Of El Paso
TTITLE9=Kitty Wells - Searching [mono]
TTITLE10=Stonewall Jackson - My Hero In The Plastic Radio
TTITLE11=Ronnie McDowell - Unchained Melody [mono]
TTITLE12=Terri Gibbs - Somebody's Knockin' [live]
TTITLE13=Tex Ritter - Goodbye My Little Cherokee [mono]
TTITLE14=Tammy Wynette - When The Grass Grows Over Me [live]
TTITLE15=Don Williams - Some Broken Hearts Never Mend
TTITLE16=George Jones - Chicken Reel [live]
TTITLE17=Gail Davies - Singin' The Blues [live] [mono]
TTITLE18=Kathy Mattea - Heart Of The Country [live]
TTITLE19=Conway Twitty - Ever Since You Went Away
EXTD=
EXTT0=
EXTT1=
EXTT2=
EXTT3=
EXTT4=
EXTT5=
EXTT6=
EXTT7=
EXTT8=
EXTT9=
EXTT10=
EXTT11=
EXTT12=
EXTT13=
EXTT14=
EXTT15=
EXTT16=
EXTT17=
EXTT18=
EXTT19=
PLAYORDER=
